<svg width="14" height="17" viewBox="0 0 14 17" fill="none" xmlns="http://www.w3.org/2000/svg">
<path fill-rule="evenodd" clip-rule="evenodd" d="M6.00003 1H8.00003C9.1046 1 10 1.89543 10 3V5H4.00003V3C4.00003 1.89543 4.89546 1 6.00003 1ZM3.00003 5V3C3.00003 1.34315 4.34318 0 6.00003 0H8.00003C9.65689 0 11 1.34315 11 3V5H11.2162C12.2606 5 13.1292 5.80364 13.2102 6.84491L13.8324 14.8449C13.9228 16.0071 13.0041 17 11.8384 17H2.16162C0.995926 17 0.0772501 16.0071 0.167642 14.8449L0.789865 6.84491C0.870853 5.80364 1.73942 5 2.78384 5H3.00003ZM11 6H3.00003H2.78384C2.26163 6 1.82735 6.40182 1.78685 6.92245L1.16463 14.9225C1.11944 15.5035 1.57877 16 2.16162 16H11.8384C12.4213 16 12.8806 15.5035 12.8354 14.9225L12.2132 6.92246C12.1727 6.40182 11.7384 6 11.2162 6H11Z" fill="#391C1C"/>
</svg>
